<svg width="280.20620117187497px" height="122.021240234375px" xmlns="http://www.w3.org/2000/svg" viewBox="109.89689941406252 13.9893798828125 280.20620117187497 122.021240234375" style="background: rgba(0, 0, 0, 0);" preserveAspectRatio="xMidYMid"><defs><filter id="editing-hole" x="-100%" y="-100%" width="300%" height="300%"><feFlood flood-color="#000" result="black"></feFlood><feMorphology operator="dilate" radius="2" in="SourceGraphic" result="erode"></feMorphology><feGaussianBlur in="erode" stdDeviation="4" result="blur"></feGaussianBlur><feOffset in="blur" dx="2" dy="2" result="offset"></feOffset><feComposite operator="atop" in="offset" in2="black" result="merge"></feComposite><feComposite operator="in" in="merge" in2="SourceGraphic" result="inner-shadow"></feComposite></filter></defs><g filter="url(#editing-hole)"><g transform="translate(155.12969028949738, 98.9921875)"><path d="M6.53 0L-0.83 0L10.75-42.24L24.13-42.24L27.07-18.11L38.98-42.24L50.18-42.24L51.33-10.62L51.33-10.62Q51.58-4.35 54.66-2.43L54.66-2.43L54.66-2.43Q53.95-1.15 51.90 0.06L51.90 0.06L51.90 0.06Q49.86 1.28 47.14 1.28L47.14 1.28L47.14 1.28Q44.42 1.28 42.82 0.51L42.82 0.51L42.82 0.51Q41.22-0.26 40.32-1.54L40.32-1.54L40.32-1.54Q38.72-3.84 38.72-8.26L38.72-8.26L38.72-28.03L26.11 0L18.18 0L13.70-28.74L6.53 0ZM60.19-1.92L60.19-1.92L60.19-1.92Q58.69-3.58 58.02-6.21L58.02-6.21L58.02-6.21Q57.34-8.83 57.34-13.12L57.34-13.12L57.34-13.12Q57.34-17.41 58.82-21.31L58.82-21.31L58.82-21.31Q60.29-25.22 62.98-28.03L62.98-28.03L62.98-28.03Q68.48-33.92 77.57-33.92L77.57-33.92L77.57-33.92Q80.83-33.92 83.20-32.83L83.20-32.83L94.14-33.92L89.41-8.96L89.41-8.96Q89.22-8.19 89.22-6.78L89.22-6.78L89.22-6.78Q89.22-5.38 90.08-4.48L90.08-4.48L90.08-4.48Q90.94-3.58 92.22-3.46L92.22-3.46L92.22-3.46Q91.58-1.28 89.25 0L89.25 0L89.25 0Q86.91 1.28 84.29 1.28L84.29 1.28L84.29 1.28Q81.66 1.28 79.90 0.29L79.90 0.29L79.90 0.29Q78.14-0.70 77.63-2.37L77.63-2.37L77.63-2.37Q76.61-0.77 74.43 0.26L74.43 0.26L74.43 0.26Q72.26 1.28 69.34 1.28L69.34 1.28L69.34 1.28Q66.43 1.28 64.06 0.51L64.06 0.51L64.06 0.51Q61.70-0.26 60.19-1.92ZM73.70-27.90L73.70-27.90L73.70-27.90Q72.96-26.75 72.32-24.80L72.32-24.80L72.32-24.80Q71.68-22.85 70.62-17.63L70.62-17.63L70.62-17.63Q69.57-12.42 69.57-8.70L69.57-8.70L69.57-8.70Q69.57-4.99 70.14-3.90L70.14-3.90L70.14-3.90Q70.72-2.82 71.74-2.82L71.74-2.82L71.74-2.82Q73.79-2.82 75.30-4.77L75.30-4.77L75.30-4.77Q76.80-6.72 77.38-10.18L77.38-10.18L80.77-28.93L80.77-28.93Q79.42-30.08 77.86-30.08L77.86-30.08L77.86-30.08Q76.29-30.08 75.36-29.57L75.36-29.57L75.36-29.57Q74.43-29.06 73.70-27.90ZM106.11 0.19L106.11 0.19L106.11 0.19Q104.06 1.28 101.25 1.28L101.25 1.28L101.25 1.28Q98.43 1.28 96.90-0.16L96.90-0.16L96.90-0.16Q95.36-1.60 95.36-4.38L95.36-4.38L95.36-4.38Q95.36-7.17 97.31-9.89L97.31-9.89L97.31-9.89Q99.26-12.61 102.18-14.14L102.18-14.14L102.18-14.14Q105.09-15.68 107.14-16.58L107.14-16.58L103.10-25.86L103.10-25.86Q102.02-28.22 99.97-28.22L99.97-28.22L99.46-28.16L99.26-28.16L99.26-28.16Q99.65-30.40 102.27-32.13L102.27-32.13L102.27-32.13Q104.90-33.92 107.90-33.92L107.90-33.92L107.90-33.92Q112.77-33.92 115.01-29.06L115.01-29.06L115.52-28.03L118.27-21.25L118.27-21.25Q120-22.02 120.74-23.46L120.74-23.46L120.74-23.46Q121.47-24.90 121.47-27.74L121.47-27.74L121.47-27.74Q121.47-30.59 119.94-32.38L119.94-32.38L119.94-32.38Q122.37-33.92 125.57-33.92L125.57-33.92L125.57-33.92Q131.33-33.92 131.33-28.35L131.33-28.35L131.33-28.35Q131.33-22.27 123.71-18.75L123.71-18.75L119.87-16.96L123.33-8.06L123.33-8.06Q124.35-5.38 126.21-4.22L126.21-4.22L126.21-4.22Q126.98-3.71 127.87-3.65L127.87-3.65L127.87-3.65Q125.95-0.51 121.79 0.90L121.79 0.90L121.79 0.90Q120.51 1.28 118.78 1.28L118.78 1.28L118.78 1.28Q117.06 1.28 115.07 0.10L115.07 0.10L115.07 0.10Q113.09-1.09 112.38-2.94L112.38-2.94L108.86-12.10L108.86-12.10Q105.28-10.50 105.28-4.67L105.28-4.67L105.28-4.67Q105.28-1.98 106.11 0.19ZM156.29-31.55L156.29-31.55L156.29-31.55Q158.40-33.92 162.05-33.92L162.05-33.92L162.05-33.92Q164.29-33.92 166.02-32.70L166.02-32.70L166.02-32.70Q167.74-31.49 167.74-29.22L167.74-29.22L167.74-29.22Q167.74-26.94 167.04-24.51L167.04-24.51L167.04-24.51Q166.34-22.08 165.25-19.58L165.25-19.58L165.25-19.58Q163.07-14.72 160.06-10.69L160.06-10.69L160.06-10.69Q155.84-4.86 151.78-1.79L151.78-1.79L151.78-1.79Q147.71 1.28 143.30 1.28L143.30 1.28L143.30 1.28Q139.71 1.28 137.54 0.45L137.54 0.45L137.54 0.45Q137.15-12.99 136.67-17.79L136.67-17.79L136.67-17.79Q136.19-22.59 135.81-25.22L135.81-25.22L135.81-25.22Q135.17-30.34 133.25-31.55L133.25-31.55L133.25-31.55Q134.72-32.83 136.16-33.38L136.16-33.38L136.16-33.38Q137.60-33.92 140.58-33.92L140.58-33.92L140.58-33.92Q143.55-33.92 145.66-31.58L145.66-31.58L145.66-31.58Q147.78-29.25 148.19-25.12L148.19-25.12L148.19-25.12Q148.61-20.99 148.61-16L148.61-16L148.61-16Q148.61-11.01 148.22-4.99L148.22-4.99L148.22-4.99Q150.21-6.40 152.32-10.69L152.32-10.69L152.32-10.69Q155.20-16.64 156.22-23.81L156.22-23.81L156.22-23.81Q156.54-25.98 156.54-28.29L156.54-28.29L156.54-28.29Q156.54-30.59 156.29-31.55ZM184.83-3.52L184.83-3.52L184.83-3.52Q182.85 1.28 176.51 1.28L176.51 1.28L176.51 1.28Q173.25 1.28 171.20-0.96L171.20-0.96L171.20-0.96Q169.47-2.94 169.47-4.93L169.47-4.93L169.47-4.93Q169.47-10.11 171.84-20.22L171.84-20.22L174.21-32.64L187.20-33.92L183.30-13.70L183.30-13.70Q182.21-8.96 182.21-7.30L182.21-7.30L182.21-7.30Q182.21-3.65 184.83-3.52ZM175.36-41.54L175.36-41.54L175.36-41.54Q175.36-44.03 177.44-45.38L177.44-45.38L177.44-45.38Q179.52-46.72 182.53-46.72L182.53-46.72L182.53-46.72Q185.54-46.72 187.36-45.38L187.36-45.38L187.36-45.38Q189.18-44.03 189.18-41.54L189.18-41.54L189.18-41.54Q189.18-39.04 187.17-37.76L187.17-37.76L187.17-37.76Q185.15-36.48 182.14-36.48L182.14-36.48L182.14-36.48Q179.14-36.48 177.25-37.76L177.25-37.76L177.25-37.76Q175.36-39.04 175.36-41.54Z" fill="#ccc"></path></g></g><style>text {
  font-size: 64px;
  font-family: Arial Black;
  dominant-baseline: central;
  text-anchor: middle;
}</style></svg>