<?xml version="1.0" standalone="no"?>
<!DOCTYPE svg PUBLIC "-//W3C//DTD SVG 20010904//EN"
 "http://www.w3.org/TR/2001/REC-SVG-20010904/DTD/svg10.dtd">
<svg version="1.0" xmlns="http://www.w3.org/2000/svg"
 width="128.000000pt" height="34.000000pt" viewBox="0 0 128.000000 34.000000"
 preserveAspectRatio="xMidYMid meet">
<metadata>
Created by potrace 1.16, written by Peter Selinger 2001-2019
</metadata>
<g transform="translate(0.000000,34.000000) scale(0.100000,-0.100000)"
fill="#000000" stroke="none">
<path d="M73 300 c-40 -24 -53 -48 -53 -97 0 -72 54 -113 150 -113 58 0 99 18
129 56 40 51 19 129 -43 158 -48 23 -142 21 -183 -4z m164 -45 c33 -22 32 -79
-2 -101 -57 -37 -155 -10 -163 45 -4 27 30 68 62 74 31 7 77 -1 103 -18z"/>
<path d="M417 313 c-4 -3 -25 -6 -47 -5 l-40 2 0 -145 0 -145 25 0 c23 0 25 4
25 46 0 40 2 45 18 38 31 -14 114 -16 153 -5 51 15 79 53 79 105 0 76 -50 116
-148 116 -32 0 -62 -3 -65 -7z m141 -66 c29 -27 28 -58 -3 -87 -31 -29 -100
-32 -140 -6 -22 14 -26 23 -23 54 2 31 9 40 38 55 42 21 95 15 128 -16z"/>
<path d="M737 313 c-4 -3 -25 -6 -47 -5 l-40 2 0 -145 0 -145 25 0 c23 0 25 4
25 45 0 44 0 44 26 35 38 -15 121 -12 154 5 89 46 93 158 6 199 -33 16 -136
22 -149 9z m129 -58 c48 -31 32 -92 -31 -113 -90 -29 -174 49 -112 105 38 35
97 39 143 8z"/>
<path d="M1024 304 c-61 -30 -82 -108 -43 -158 30 -38 71 -56 129 -56 97 0
150 41 150 115 0 75 -51 115 -147 115 -32 0 -72 -7 -89 -16z m164 -57 c70 -65
-59 -148 -143 -93 -22 14 -26 24 -23 54 2 31 9 40 38 55 42 21 95 15 128 -16z"/>
</g>
</svg>
